Coordinates
version=1
nRows=15
nColumns=19
inDegrees=yes

Units are S.I. units (second, meters, Newtons, ...)
If the header above contains a line with 'inDegrees', this indicates whether rotational values are in degrees (yes) or radians (no).

endheader
time	pelvis_tilt	pelvis_list	pelvis_rotation	pelvis_tx	pelvis_ty	pelvis_tz	hip_flexion_r	hip_adduction_r	hip_rotation_r	knee_angle_r	knee_angle_r_beta	ankle_angle_r	hip_flexion_l	hip_adduction_l	hip_rotation_l	knee_angle_l	knee_angle_l_beta	ankle_angle_l
     13.32000000	     -2.17246769	      8.69630510	      2.34055322	      2.14939989	      1.05514002	      0.99327397	    -12.77948675	    -15.40854704	    -21.57538461	     45.67976145	      0.79726224	    -18.99345138	     18.97029805	     10.54603306	     -9.66663281	     12.99005036	      0.22671915	      3.15631571
     13.32666667	     -1.42203803	      9.31577606	      2.41437249	      2.14868205	      1.05083739	      0.99233891	    -12.86253000	    -16.45408172	    -21.21386209	     48.15154670	      0.84040303	    -18.07370427	     19.01547275	     10.88378484	    -10.75057985	     16.20024713	      0.28274765	      3.46876728
     13.33333333	     -1.73533151	      9.49770562	      2.46066490	      2.14748867	      1.04515587	      0.99148438	    -11.39758939	    -17.06198306	    -20.15763554	     50.94552564	      0.88916716	    -17.09149721	     20.39631361	     10.66134901	    -11.86345965	     19.87487370	      0.34688198	      4.08380279
     13.34000000	     -1.26122898	     10.00230327	      2.53647397	      2.14643792	      1.04031591	      0.99076009	    -10.91147449	    -17.95533673	    -19.46483570	     53.56046593	      0.93480648	    -16.16869276	     20.60738064	     10.86407347	    -12.50088665	     23.01367474	      0.40166440	      4.83205028
     13.34666667	     -0.41585887	     10.60590397	      2.59919223	      2.14528852	      1.03598003	      0.99014646	    -10.81650955	    -18.90854531	    -18.84069693	     56.08381534	      0.97884723	    -15.23356265	     20.23786244	     11.23389194	    -12.81356414	     25.83681739	      0.45093753	      5.87264914
     13.35333333	     -0.35132233	     11.01544335	      2.57298489	      2.14374935	      1.03090791	      0.98961740	     -9.52132957	    -19.66485562	    -17.62838443	     58.81921839	      1.02658902	    -14.23595522	     20.70796060	     11.40002876	    -13.09301856	     28.62459777	      0.49959348	      7.18876024
     13.36000000	     -0.00025201	     11.52481998	      2.56142312	      2.14216571	      1.02641600	      0.98907710	     -8.53942831	    -20.48642212	    -16.52548889	     61.42225196	      1.07202053	    -13.25108242	     20.68298770	     11.76405142	    -13.12323375	     31.05502574	      0.54201245	      8.71073186
     13.36666667	      0.31475570	     12.03599468	      2.50976113	      2.14042563	      1.02219071	      0.98855862	     -7.40672378	    -21.28688999	    -15.31700241	     63.96964558	      1.11648094	    -12.23503231	     20.56203193	     12.18573437	    -13.04584099	     33.20288134	      0.57949960	     10.37581760
     13.37333333	      0.40381467	     12.46105929	      2.43465377	      2.13853488	      1.01811126	      0.98805524	     -5.87511981	    -21.94708811	    -13.89446951	     66.46840647	      1.16009254	    -11.19755705	     20.57646325	     12.55813454	    -12.90452248	     35.12688822	      0.61307986	     12.12463072
     13.38000000	      0.50306829	     12.86657832	      2.27143583	      2.13662828	      1.01445613	      0.98761930	     -4.24755256	    -22.54734099	    -12.35431577	     68.84685627	      1.20160432	    -10.13058112	     20.42525977	     12.92408728	    -12.80386264	     36.74655464	      0.64134837	     13.91075266
     13.38666667	      1.07531471	     13.14009237	      2.34292198	      2.13480886	      1.01186410	      0.98691960	     -3.37231873	    -22.93909930	    -11.33406921	     70.85577226	      1.23666652	     -8.98928596	     19.56758984	     13.30445014	    -12.24351035	     38.10009966	      0.66497218	     15.71765667
     13.39333333	      0.15697158	     13.22155820	      1.93895247	      2.13258850	      1.00796419	      0.98681170	     -0.12302991	    -23.01465315	     -8.94006474	     73.19290828	      1.27745724	     -7.82258387	     20.36819245	     13.24420996	    -12.49577971	     39.37770339	      0.68727058	     17.18161194
     13.40000000	      0.21555723	     13.32243453	      1.54006389	      2.13069393	      1.00573429	      0.98671148	      1.79457229	    -23.04698738	     -7.09176695	     75.04800566	      1.30983480	     -6.65666345	     19.83851921	     13.27455786	    -12.53732405	     40.21736176	      0.70192538	     18.61592578
     13.40666667	     -0.22368135	     13.19830479	      1.29784518	      2.12874590	      1.00340868	      0.98649166	      4.26495794	    -22.75238540	     -5.29880858	     76.77237055	      1.33993064	     -5.44867649	     19.76938028	     13.11210969	    -12.45419625	     40.97330004	      0.71511899	     19.90354178
     13.41333333	     -0.46851799	     13.00514457	      0.95277172	      2.12692766	      1.00181722	      0.98645669	      6.50180136	    -22.30730614	     -3.57091680	     78.23255138	      1.36541560	     -4.25614603	     19.33280822	     12.85718199	    -12.45008267	     41.44923981	      0.72342571	     21.01978920
